<svg xmlns="http://www.w3.org/2000/svg" viewBox="0 0 805.85 226.71"><defs><style>.cls-1{fill:#231f20;fill-rule:evenodd;}</style></defs><g id="Layer_2" data-name="Layer 2"><g id="Layer_1-2" data-name="Layer 1"><path class="cls-1" d="M207.84,151.11c-2.86-1.44-5.81-2.49-8.88-3.84-5.67-2.5-11.42-5.1-17.28-7.68-2.51-1.11-5.3-3-7.92-3.84-1.58-.54-3,.39-4.32.72a9.45,9.45,0,0,1-7-1.44,10.59,10.59,0,0,1-3.36-5.28c-.94-3.48,2.2-5.63.24-8.16-.53-.8-1.25-1-1.92-1.68H154.8c-1.88.66-3,3.22-6,1.2-.58-.39-.88-1.24-1.44-1.68-.59-5.15,1.47-7.27,3.36-10.32,2.62-.56,6.53.18,8.64-1.2,3.51-2.31,6-9,2.88-13.68-1-1.45-2.81-2-4.08-3.12-.64-1.06-.31-2.85-.72-4.08a17.54,17.54,0,0,0-2.4-4.56c-2.93-4-9.88-5.59-14.64-7.68-7.77-3.43-15.58-7.05-23.52-10.56-2.58-1.14-6.13-3.84-10.8-2.64-2.63.67-4.33,2.31-6.48,3.12,0,0-4.42-1.28-6.24-.72-3.23,1-8.7,5.48-7.2,10.8.46,1.64,1.43,3.06,1.92,4.56.33.92-.8,2.21-1.2,3.12-1.44,3.29-2.95,6.48-4.32,9.6-5.43,12.36-11,24.4-16.32,36.72-9.5,1.28-13.49,13.75-3.6,18l.72,4.56c2.7,7.34,10.8,9.16,17.76,12.24,6.81,3,13.83,6.59,20.64,9.6,4.95,2.18,10.76,5.1,16.56,1.68,1-.59,2-.79,2.64-1.68,1.68.27,3.36,1.54,5.76,1,4.42-1.08,9.61-5.65,7.68-12-.77-2.55-3.25-3.22-4.08-5.52-1.68-2.63,2.06-8.15,3.12-9.12.59-.55,1.52-.71,2.16-1.2,2.68,0,3.08.91,4.56,1.92a4.36,4.36,0,0,0,.48,1.44c-.06,3.05,1,3.05,2.64,4.32,3.94,0,3.89-1.87,5.52-4.08,1.35-1.84,5.54-3.43,8.88-2.4a9.88,9.88,0,0,1,5.52,5c.4.76.56,1.9,1.2,2.4s1,.2,1.68.48c2.4,1.06,4.85,2.22,7.44,3.36,6.82,3,13.65,6.28,20.64,9.36,2.74,1.2,5.48,2.55,8.4,3.84,1.55.68,3,2,5,2.16a77.25,77.25,0,0,1,2.16-14.4c.5-2.08,0-4.84,1-6.48C210.49,151.45,209.15,151.76,207.84,151.11Zm-114-54.24c-3.6,8.18-7,16-10.56,24.24-1.59,3.62-4.32,7.52-5.28,11.52l-5.52-2.4,20.88-46.8a11.84,11.84,0,0,1,5,2.16h.48C98.18,89.57,95.37,93.38,93.84,96.87Z"/><path class="cls-1" d="M709.44,212.55c-6.71-4.6-4.24-14.54-6.24-23.76-.42-1.95.12-4.6-.24-6.24V172c-.73-3.38-.24-8.19-.24-12V36.39c0-3.83-.77-9.5.48-12.48.35-.85,1.19-1.43,1.68-2.16,26.21-5.61,41.13,12.27,47,30.48,1.27,3.91,1.17,7.61,2.16,12,2.68,11.82.81,30.06-2.88,38.88-3.92,9.37-10.59,16.41-20.64,19.68-4.83,1.56-12.84.44-16.8,2.88a3,3,0,0,0,.24,2.64c1.94,2.7,8.88,2.4,13.44,2.4a86.36,86.36,0,0,0,29.52-5c22.64-8.41,38.37-21.47,46.08-44.88,2.58-7.84,4-21.46,1.44-30.72-6.59-23.45-20.12-33.7-42.72-41-4.94-1.61-10.39-1.89-15.6-3.12l-6.24-.48c-6-1.37-13.44-1-20.4-1h-9.36c-2.56.57-6.27-.41-9.12.24-2.28.51-5.5,0-8.16.24-3.1.28-7.08.24-10.56.24l-38.88-.48c-4.63-1-15-.54-18.24,1-.15.65-.4,1.38-.24,1.68.35,4.56,8.87,2.42,13,3.36,6.09,1.38,10.17,3.09,12,8.64,1,3.09.7,6.88,1.44,10.32v6c.8,3.7-.62,8.71.24,12.72.45,2.07.24,5.2.24,7.68v81.6c0,6.86.35,14.42-.24,20.88-.38,4.12.56,9-.24,12.72v8.16c-.34,1.56.16,4.13-.24,6-.55,2.54.12,5.62-.48,8.4-1.6,7.42-.63,18-7.2,20.16-1.42.88-9.19.24-11.52.24h-71c-7.11,0-14,.64-17.52-2.88-4.88-4.9-3-14.36-4.8-22.56v-6.24c-.65-3,.48-7.24-.24-10.56-1.07-5-.24-12.71-.24-18.24V30.87c0-2.07-.29-4.53.24-6.24.37-1.22,1.3-1.95,1.92-2.88,26.21-5.61,41.13,12.27,47,30.48,1.27,3.91,1.17,7.61,2.16,12,2.68,11.82.81,30.06-2.88,38.88-3.92,9.37-10.59,16.41-20.64,19.68-4.83,1.56-12.84.44-16.8,2.88a3,3,0,0,0,.24,2.64c1.94,2.7,8.88,2.4,13.44,2.4a86.36,86.36,0,0,0,29.52-5c22.64-8.41,38.37-21.47,46.08-44.88,2.58-7.84,4-21.46,1.44-30.72-6.59-23.45-20.12-33.7-42.72-41-4.94-1.61-10.39-1.89-15.6-3.12l-6.24-.48c-6-1.37-13.44-1-20.4-1h-9.36c-2.56.57-6.27-.41-9.12.24-2.28.51-5.5,0-8.16.24-3.1.28-7.08.24-10.56.24L478.8,4.71c-4.63-1-15-.54-18.24,1-.15.65-.4,1.38-.24,1.68.35,4.56,8.87,2.42,13,3.36,6.09,1.38,10.17,3.09,12,8.64,1,3.09.7,6.88,1.44,10.32v6c.8,3.7-.62,8.71.24,12.72.45,2.07.24,5.2.24,7.68v81.6c0,6.86.35,14.42-.24,20.88-.38,4.12.56,9-.24,12.72v8.16c-.34,1.56.16,4.13-.24,6-.55,2.54.12,5.62-.48,8.4-1.6,7.42-.63,18-7.2,20.16-.79.5-2.87.24-4.08.24a16.37,16.37,0,0,1-10.08-2.88c-9.21-6.16-8.12-20.08-11-32.64l-.72-7.2c-1.57-6.72-1.56-14.41-3.12-21.12l-.72-7.2c-3-13.08-2.72-27.5-5.76-40.56-1.11-4.77-.87-9.67-1.92-14.16-1.23-5.31-1-10.82-2.16-15.84l-.48-5.52c-1.27-5.55-1.35-12-2.64-17.52-.24-2.4-.48-4.81-.72-7.2-1.94-8.44-1.88-18-3.84-26.4-1.26-5.42-.59-10.93-3.36-14.64L426.48.15c-5.23,0-6.77,4.51-8.88,7.68-6,9-10.56,19.15-16.32,28.56-15.63,25.52-29.07,52.68-44.64,78.24-4.77,7.82-8.72,16-13.44,23.76-2.1,3.43-3.36,7.84-6,10.8l-.24.24c-2.17-4.44-5.13-8.61-7.68-12.72-5-8.12-9.71-16.44-14.64-24.48C298.54,86,283.54,59.09,267.36,33c-4.34-7-7.84-14.18-12.24-21.12-1.24-2-3-3.85-4.32-5.76-1.58-2.31-5.22-8.39-9.6-5.28-3.32,2.35-2.95,10.3-4.08,15.12-2.33,9.88-2.42,20.86-4.8,30.72l-.72,6.72c-3.25,13.53-3.2,28.46-6.48,42-1.06,4.36-.93,8.87-1.92,13-1.06,4.36-.93,8.87-1.92,13-.16,1.67-.32,3.36-.48,5-1.21,5.06-1.41,11-2.64,16.08-.16,1.67-.32,3.36-.48,5-1.93,8-2.1,17.24-4.08,25.2l-.72,7.2c-2.67,11.14-2.44,28.22-10.56,33.6-2.36,1.56-8.63.71-12.24.72h-31.2c.17-11,1.84-19.85-9.6-19.68-1.35-10-15.68-8.17-27.12-8.16H49.44c-9.9,0-18.52-1.34-22.8,4.56-.81,1.11-1.68,1.81-1.92,3.6-11.17-.16-9.53,8.93-9.36,19.68H0v12.48H805.68V214.23H736.56C728.93,214.23,714,215.67,709.44,212.55Zm-394.08,1.68H264.24c-7.41,0-17.07,1-21.36-2.16-4-3-4.39-17.73-2.88-24.72.08-2.08.16-4.17.24-6.24q4.32-41.64,8.64-83.28c1.89,1.5,2.55,4.84,3.84,7,4,6.63,7.18,13.9,11.28,20.64,11.8,19.36,22,39.89,33.84,59.28,4.1,6.73,7.66,13.65,11.76,20.16,1.67,2.64,3.5,7.2,5.76,9.12Zm88.8-2.4c-.91,1.36-2.77,1.42-4.08,2.4h-69.6c.88-3.18,3.84-7.32,5.52-10.08,4.26-7,7.32-14.7,11.52-21.6,1.38-2.27,2-4.7,3.36-7,5.59-9.18,10-19.38,15.6-28.56,2.08-3.43,3.19-7.14,5.28-10.56,3.57-5.85,6.52-12.39,10.08-18.24,1.28-2.12,1.83-4.37,3.12-6.48A143.08,143.08,0,0,0,394.08,95c1,1.57.25,4.36.72,6.48,1,4.5.68,9.9,1.68,14.4l.24,4.8c2.19,9.9,1.15,21.06,3.36,31,.73,3.24.29,6.62,1,9.6.9,4,.36,8.24,1.2,12,1.19,5.3.52,11.4,1.68,16.56l.24,4.8C405,198.21,406.11,208.9,404.16,211.83Z"/></g></g></svg>